<?xml version="1.0" encoding="utf-8"?>
<!-- Generator: Adobe Illustrator 25.4.1, SVG Export Plug-In . SVG Version: 6.00 Build 0)  -->
<svg version="1.1" id="Layer_1" xmlns="http://www.w3.org/2000/svg" xmlns:xlink="http://www.w3.org/1999/xlink" x="0px" y="0px"
	 viewBox="0 0 1000 1000" style="enable-background:new 0 0 1000 1000;" xml:space="preserve">
<style type="text/css">
	.st0{fill:#929497;}
	.st1{fill:#008A79;}
	.st2{fill:#00897D;}
	.st3{fill:#008880;}
	.st4{fill:#00998B;}
	.st5{fill:#009B8B;}
	.st6{fill:#00A08B;}
	.st7{fill:#00B4A6;}
	.st8{fill:#00B6A7;}
	.st9{fill:#009D8A;}
	.st10{fill:#019A8B;}
</style>
<g>
	<path class="st0" d="M114,682.2c0.5,0.6,0.8,0.6,1.1,0l15.3-29.1c0.2-0.4,0.5-0.6,0.9-0.6h2.8c0.5,0,1,0.5,1,1v33.4
		c0,0.6-0.5,1-1,1h-2.8c-0.6,0-1-0.5-1-1v-26l-13.4,25c-1.5,2.7-4.8,2.7-6.2,0l-11-21.7V687c0,0.6-0.4,1-1,1H96c-0.5,0-1-0.5-1-1
		v-33.4c0-0.6,0.5-1,1-1h2.8c0.4,0,0.7,0.2,0.9,0.6l0,0l0,0l0,0l0,0L114,682.2L114,682.2z"/>
	<path class="st0" d="M147.4,661.6h2.8c0.6,0,1,0.5,1,1v24.3c0,0.6-0.4,1-1,1h-2.8c-0.6,0-1-0.5-1-1v-24.3
		C146.4,662,146.9,661.6,147.4,661.6L147.4,661.6z"/>
	<path class="st0" d="M148.8,652.5c1.4,0,2.6,1.2,2.6,2.6c0,1.4-1.2,2.6-2.6,2.6c-1.4,0-2.6-1.2-2.6-2.6S147.4,652.5,148.8,652.5
		L148.8,652.5z"/>
	<path class="st0" d="M198.2,661.6h2.8c0.6,0,1,0.5,1,1v24.3c0,0.6-0.5,1-1,1h-2.8c-0.5,0-1-0.5-1-1v-24.3
		C197.2,662,197.7,661.6,198.2,661.6L198.2,661.6z"/>
	<path class="st0" d="M199.6,652.5c1.4,0,2.6,1.2,2.6,2.6c0,1.4-1.2,2.6-2.6,2.6c-1.4,0-2.6-1.2-2.6-2.6S198.2,652.5,199.6,652.5
		L199.6,652.5z"/>
	<path class="st0" d="M560.9,661.6h2.8c0.5,0,1,0.5,1,1v24.3c0,0.6-0.5,1-1,1h-2.8c-0.6,0-1-0.5-1-1v-24.3
		C559.9,662,560.4,661.6,560.9,661.6L560.9,661.6z"/>
	<path class="st0" d="M562.3,652.5c1.4,0,2.6,1.2,2.6,2.6c0,1.4-1.2,2.6-2.6,2.6c-1.4,0-2.6-1.2-2.6-2.6S560.9,652.5,562.3,652.5
		L562.3,652.5z"/>
	<path class="st0" d="M181.9,672.1c0-6.2-5.2-8.3-15.9-8.2v22.9c0,0.5-0.5,1-1,1h-2.8c-0.5,0-1-0.5-1-1v-24.3c0-0.6,0.5-1,1-1
		c4.2,0,8.4-0.1,12.6,0c7.5,0.3,11.9,5,11.9,12.3v13.1c0,0.5-0.5,1-1,1h-2.8c-0.5,0-1-0.5-1-1V672.1L181.9,672.1z"/>
	<path class="st0" d="M625.8,672.1c0-6.2-5.2-8.3-15.9-8.2v22.9c0,0.5-0.5,1-1,1h-2.8c-0.5,0-1-0.5-1-1v-24.3c0-0.6,0.5-1,1-1
		c4.2,0,8.4-0.1,12.6,0c7.5,0.3,11.9,5,11.9,12.3v13.1c0,0.5-0.5,1-1,1h-2.8c-0.5,0-1-0.5-1-1V672.1L625.8,672.1z"/>
	<path class="st0" d="M449.1,677.2c0,6.2,5.2,8.3,15.9,8.2v-22.9c0-0.5,0.5-1,1-1h2.8c0.5,0,1,0.5,1,1v24.3c0,0.6-0.5,1-1,1
		c-4.2,0-8.4,0.1-12.6,0c-7.5-0.3-11.9-5-11.9-12.3v-13.1c0-0.5,0.5-1,1-1h2.8c0.5,0,1,0.5,1,1L449.1,677.2L449.1,677.2z"/>
	<path class="st0" d="M236,675.6v-22.1c0-0.6,0.5-1,1-1h2.8c0.6,0,1,0.5,1,1v7.6c0,0.3,0.2,0.5,0.5,0.5h7c0.3,0,0.5,0.2,0.5,0.5v1.4
		c0,0.3-0.2,0.5-0.5,0.5h-7c-0.3,0-0.5,0.2-0.5,0.5V678c0,4,2.3,6.3,6.9,7.3c2.8,0.6,3.6,2.7,0.2,2.6
		C240.5,687.7,236,682.9,236,675.6L236,675.6z"/>
	<path class="st0" d="M539.1,675.6v-22.1c0-0.6,0.5-1,1-1h2.8c0.5,0,1,0.5,1,1v7.6c0,0.3,0.2,0.5,0.5,0.5h7c0.3,0,0.5,0.2,0.5,0.5
		v1.4c0,0.3-0.2,0.5-0.5,0.5h-7c-0.3,0-0.5,0.2-0.5,0.5V678c0,4,2.3,6.3,6.9,7.3c2.8,0.6,3.6,2.7,0.2,2.6
		C543.5,687.7,539.1,682.9,539.1,675.6L539.1,675.6z"/>
	<path class="st0" d="M349.4,664.8v22.1c0,0.5,0.5,1,1,1h2.8c0.5,0,1-0.5,1-1v-15.2c0-0.3,0.2-0.5,0.5-0.5h7c0.3,0,0.5-0.2,0.5-0.5
		v-1.4c0-0.3-0.2-0.5-0.5-0.5h-7c-0.3,0-0.5-0.2-0.5-0.5v-5.8c0-4,2.3-6.3,6.9-7.3c2.8-0.6,3.6-2.7,0.2-2.6
		C353.8,652.7,349.4,657.5,349.4,664.8L349.4,664.8z"/>
	<path class="st0" d="M256.4,673.8v13.1c0,0.5,0.5,1,1,1h2.8c0.5,0,1-0.5,1-1c0-16.9,0,7.4,0-15.4c0-4,2.3-6.3,6.9-7.3
		c2.8-0.6,3.6-2.7,0.2-2.6C260.8,661.8,256.4,666.5,256.4,673.8L256.4,673.8z"/>
	<path class="st0" d="M295.1,688.4c0-0.3-0.2-0.5-0.5-0.5c-1.9,0-3.1,0-5.7-0.1c-7.5-0.3-11.9-5-11.9-12.3v-13.1c0-0.5,0.5-1,1-1
		h2.8c0.5,0,1,0.5,1,1v14.7c0,4.5,2.9,8.5,6.8,8.5c2.4,0,6.6-1.9,6.6-6.9c0-5.4,0-10.9,0-16.3c0-0.5,0.5-1,1-1h2.8c0.5,0,1,0.5,1,1
		v29.2c0,7.3-4.4,12.1-11.9,12.3c-3.4,0.1-2.6-2,0.2-2.6c4.6-1,6.9-3.6,7-7.6L295.1,688.4L295.1,688.4z"/>
	<path class="st0" d="M381.5,652.5c7.6,0,15.3,0,22.9,0c0.4,0,0.7,0.3,0.7,0.7v2c0,0.4-0.3,0.7-0.7,0.7h-19.1v11.8h13.6
		c0.4,0,0.7,0.3,0.7,0.7v2c0,0.4-0.3,0.7-0.7,0.7h-13.6v13.4h19.1c0.4,0,0.7,0.3,0.7,0.7v2c0,0.4-0.3,0.7-0.7,0.7
		c-7.6,0-15.3,0-22.9,0c-0.6,0-1-0.5-1-1v-33.4C380.5,653,381,652.5,381.5,652.5L381.5,652.5z"/>
	<path class="st0" d="M333.5,661.6h-6c-5.5,0-10,4.5-10,10v6.3c0,5.5,4.5,10,10,10h6c5.5,0,10-4.5,10-10v-6.3
		C343.5,666.1,339,661.6,333.5,661.6z M338.3,679.2c0,3.3-2.7,6.1-6.1,6.1h-3.6c-3.3,0-6.1-2.7-6.1-6.1v-8.9
		c0.1-3.4,2.8-6.1,6.1-6.1h3.6c3.3,0,6.1,2.7,6.1,6.1V679.2z"/>
	<path class="st0" d="M588.7,661.6h-6c-5.5,0-10,4.5-10,10v6.3c0,5.5,4.5,10,10,10h6c5.5,0,10-4.5,10-10v-6.3
		C598.7,666.1,594.2,661.6,588.7,661.6z M593.6,679.2c0,3.3-2.7,6.1-6.1,6.1h-3.6c-3.3,0-6.1-2.7-6.1-6.1v-8.9
		c0.1-3.4,2.8-6.1,6.1-6.1h3.6c3.3,0,6.1,2.7,6.1,6.1V679.2z"/>
	<path class="st0" d="M434.3,652.5h-2.8c-0.5,0-1,0.5-1,1v7.6c0,0.3-0.2,0.5-0.5,0.5h-11.2c-5.5,0-10,4.5-10,10v6.3
		c0,5.5,4.5,10,10,10h12.7h1.8h1c0.6,0,1-0.5,1-1v-33.4C435.3,652.9,434.8,652.5,434.3,652.5z M430.5,685.1c0,0.3-0.2,0.5-0.5,0.5
		h-9c-4,0-7.3-3.3-7.3-7.3v-7c0-4,3.3-7.3,7.3-7.3h9c0.3,0,0.5,0.2,0.5,0.5V685.1z"/>
	<path class="st0" d="M529.7,661.6c-4.7,0-8.6,0-15.4,0c-5.5,0-10,4.5-10,10v6.3c0,5.5,4.5,10,10,10c4.9,0,10.9-0.7,11.6-0.6
		c0.5,0.1,0.7,0.6,1.5,0.6h2.3c0.6,0,1-0.5,1-1v-24.3C530.7,662,530.2,661.6,529.7,661.6z M526,679.4c0,2.4-1.6,6.7-9.5,6.1
		c-4-0.3-7.3-3.3-7.3-7.3v-7c0-4,3.3-7.3,7.3-7.3h9c0.3,0,0.5,0.2,0.5,0.5V679.4z"/>
	<path class="st0" d="M486.1,687.9c-5.5,0-10-4.5-10-10v-6.3c0-5.5,4.5-10,10-10h13.1c0.1,0,0.2,0.1,0.2,0.2v1.9
		c0,0.1-0.1,0.2-0.2,0.2c-3.7,0-7.3,0-11,0c-4,0-7.3,3.3-7.3,7.3v7c0,4,3.3,7.3,7.3,7.3c3.7,0,7.3,0,11,0c0.1,0,0.2,0.1,0.2,0.2v1.9
		c0,0.1-0.1,0.2-0.2,0.2L486.1,687.9L486.1,687.9z"/>
	<path class="st0" d="M224.9,663.6c2.4,0,2.4-3.3,0.1-3.5c-6.7-0.7-12.9,0.8-14.5,6.1c-1.2,4,1.2,7.6,7,8.7
		c7.6,1.4,10.5,5.1,7.3,8.5c-1.7,1.7-6.8,1.1-10.5,1.3c-4,0.2-3.5,3.2,0,3.2c6,0.1,12.7,0.9,15.1-3.1c2.5-4.2,0.4-10-4.3-11
		c-6.3-1.3-10.2-2.7-9.4-6.3C216.4,663.9,219.5,663.7,224.9,663.6L224.9,663.6z"/>
	<path class="st1" d="M631.4,458.6c4,0,7.2,3.2,7.2,7.2s-3.2,7.2-7.2,7.2s-7.2-3.2-7.2-7.2C624.3,461.8,627.5,458.6,631.4,458.6
		L631.4,458.6z"/>
	<path class="st1" d="M631.4,396.7c4.3,0,7.8,3.5,7.8,7.8s-3.5,7.8-7.8,7.8s-7.8-3.5-7.8-7.8C623.6,400.2,627.1,396.7,631.4,396.7
		L631.4,396.7z"/>
	<path class="st2" d="M667.2,426.1c4.3,0,7.8,3.5,7.8,7.8s-3.5,7.8-7.8,7.8s-7.8-3.5-7.8-7.8S662.9,426.1,667.2,426.1L667.2,426.1z"
		/>
	<path class="st2" d="M597.2,427.4c4.3,0,7.8,3.5,7.8,7.8s-3.5,7.8-7.8,7.8s-7.8-3.5-7.8-7.8C589.3,430.9,592.8,427.4,597.2,427.4
		L597.2,427.4z"/>
	<path class="st3" d="M525,438.3c4,0,7.2,3.2,7.2,7.2s-3.2,7.2-7.2,7.2s-7.2-3.2-7.2-7.2S521,438.3,525,438.3L525,438.3z"/>
	<path class="st3" d="M738.3,437.4c4,0,7.2,3.2,7.2,7.2s-3.2,7.2-7.2,7.2s-7.2-3.2-7.2-7.2S734.4,437.4,738.3,437.4L738.3,437.4z"/>
	<path class="st3" d="M669,368.7c4.7,0,8.4,3.8,8.4,8.4c0,4.7-3.8,8.4-8.4,8.4c-4.7,0-8.4-3.8-8.4-8.4
		C660.6,372.4,664.3,368.7,669,368.7L669,368.7z"/>
	<path class="st3" d="M595.2,369.6c4.7,0,8.4,3.8,8.4,8.4c0,4.7-3.8,8.4-8.4,8.4c-4.7,0-8.4-3.8-8.4-8.4S590.6,369.6,595.2,369.6
		L595.2,369.6z"/>
	<path class="st3" d="M558.5,401c4.7,0,8.4,3.8,8.4,8.4c0,4.7-3.8,8.4-8.4,8.4c-4.7,0-8.4-3.8-8.4-8.4S553.9,401,558.5,401
		L558.5,401z"/>
	<path class="st3" d="M705.7,399.6c5,0,9,4,9,9s-4,9-9,9s-9-4-9-9S700.8,399.6,705.7,399.6L705.7,399.6z"/>
	<path class="st4" d="M708.4,344c5.5,0,9.9,4.4,9.9,9.9s-4.4,9.9-9.9,9.9s-9.9-4.4-9.9-9.9S702.9,344,708.4,344L708.4,344z"/>
	<path class="st5" d="M750.2,324.9c6.8,0,12.3,5.5,12.3,12.3s-5.5,12.3-12.3,12.3s-12.3-5.5-12.3-12.3
		C737.9,330.5,743.4,324.9,750.2,324.9L750.2,324.9z"/>
	<path class="st6" d="M793.6,311.4c7.9,0,14.3,6.4,14.3,14.3s-6.4,14.3-14.3,14.3c-7.9,0-14.3-6.4-14.3-14.3
		S785.7,311.4,793.6,311.4L793.6,311.4z"/>
	<path class="st7" d="M838,302.2c8.3,0,14.9,6.7,14.9,14.9c0,8.3-6.7,14.9-14.9,14.9c-8.3,0-15-6.7-15-14.9
		C823,308.9,829.7,302.2,838,302.2L838,302.2z"/>
	<path class="st8" d="M883.1,296.1c9.2,0,16.7,7.5,16.7,16.7s-7.5,16.7-16.7,16.7s-16.7-7.5-16.7-16.7
		C866.4,303.5,873.9,296.1,883.1,296.1L883.1,296.1z"/>
	<path class="st4" d="M747.4,379c5.5,0,9.9,4.4,9.9,9.9s-4.4,9.9-9.9,9.9s-9.9-4.4-9.9-9.9C737.4,383.5,741.9,379,747.4,379
		L747.4,379z"/>
	<path class="st5" d="M790.9,363c6.8,0,12.3,5.5,12.3,12.3s-5.5,12.3-12.3,12.3s-12.3-5.5-12.3-12.3
		C778.6,368.6,784.1,363,790.9,363L790.9,363z"/>
	<path class="st6" d="M836.7,352.8c7.9,0,14.3,6.4,14.3,14.3s-6.4,14.3-14.3,14.3c-7.9,0-14.3-6.4-14.3-14.3
		C822.4,359.2,828.8,352.8,836.7,352.8L836.7,352.8z"/>
	<path class="st7" d="M884.9,351.2c8.3,0,14.9,6.7,14.9,14.9c0,8.3-6.7,15-14.9,15c-8.3,0-15-6.7-15-15
		C869.9,357.9,876.6,351.2,884.9,351.2L884.9,351.2z"/>
	<path class="st4" d="M785,415.8c5.5,0,9.9,4.4,9.9,9.9s-4.4,9.9-9.9,9.9s-9.9-4.4-9.9-9.9C775.1,420.2,779.5,415.8,785,415.8
		L785,415.8z"/>
	<path class="st5" d="M836.7,403.5c6.8,0,12.3,5.5,12.3,12.3s-5.5,12.3-12.3,12.3s-12.3-5.5-12.3-12.3
		C824.4,409.1,829.9,403.5,836.7,403.5L836.7,403.5z"/>
	<path class="st6" d="M886.2,402.2c7.4,0,13.4,6,13.4,13.4s-6,13.4-13.4,13.4s-13.4-6-13.4-13.4
		C872.7,408.2,878.8,402.2,886.2,402.2L886.2,402.2z"/>
	<path class="st4" d="M555.6,345.3c5.5,0,9.9,4.4,9.9,9.9s-4.4,9.9-9.9,9.9s-9.9-4.4-9.9-9.9C545.7,349.8,550.1,345.3,555.6,345.3
		L555.6,345.3z"/>
	<path class="st9" d="M514.4,326.7c6.8,0,12.3,5.5,12.3,12.3s-5.5,12.3-12.3,12.3s-12.3-5.5-12.3-12.3
		C502,332.2,507.6,326.7,514.4,326.7L514.4,326.7z"/>
	<path class="st6" d="M470.7,313.1c7.9,0,14.3,6.4,14.3,14.3s-6.4,14.3-14.3,14.3s-14.3-6.4-14.3-14.3
		C456.4,319.5,462.8,313.1,470.7,313.1L470.7,313.1z"/>
	<path class="st7" d="M426.4,304.4c8.3,0,14.9,6.7,14.9,15s-6.7,14.9-14.9,14.9c-8.3,0-15-6.7-15-14.9
		C411.4,311.1,418.1,304.4,426.4,304.4L426.4,304.4z"/>
	<path class="st8" d="M381.4,296.1c9.2,0,16.7,7.5,16.7,16.7s-7.5,16.7-16.7,16.7s-16.7-7.5-16.7-16.7
		C364.7,303.5,372.2,296.1,381.4,296.1L381.4,296.1z"/>
	<path class="st4" d="M516.8,380.3c5.5,0,9.9,4.4,9.9,9.9s-4.4,9.9-9.9,9.9s-9.9-4.4-9.9-9.9C506.9,384.8,511.3,380.3,516.8,380.3
		L516.8,380.3z"/>
	<path class="st9" d="M472.9,364.4c6.8,0,12.3,5.5,12.3,12.3s-5.5,12.3-12.3,12.3s-12.3-5.5-12.3-12.3S466.1,364.4,472.9,364.4
		L472.9,364.4z"/>
	<path class="st6" d="M426.4,354.1c7.9,0,14.3,6.4,14.3,14.3s-6.4,14.3-14.3,14.3s-14.3-6.4-14.3-14.3S418.5,354.1,426.4,354.1
		L426.4,354.1z"/>
	<path class="st7" d="M379.6,352.5c8.3,0,15,6.7,15,14.9c0,8.3-6.7,15-15,15s-14.9-6.7-14.9-15C364.7,359.2,371.3,352.5,379.6,352.5
		L379.6,352.5z"/>
	<path class="st4" d="M479.4,417.1c5.5,0,9.9,4.4,9.9,9.9s-4.4,9.9-9.9,9.9s-9.9-4.4-9.9-9.9C469.5,421.6,473.9,417.1,479.4,417.1
		L479.4,417.1z"/>
	<path class="st9" d="M429,404.9c6.8,0,12.3,5.5,12.3,12.3s-5.5,12.3-12.3,12.3s-12.3-5.5-12.3-12.3S422.2,404.9,429,404.9
		L429,404.9z"/>
	<path class="st6" d="M377.4,403.6c7.4,0,13.4,6,13.4,13.4s-6,13.4-13.4,13.4s-13.4-6-13.4-13.4S370,403.6,377.4,403.6L377.4,403.6z
		"/>
	<circle class="st10" cx="166.4" cy="613.6" r="4"/>
	<circle class="st10" cx="366" cy="550.7" r="4"/>
	<path class="st10" d="M179.9,609.6c-2.3,0-4.1,1.8-4,4c0,2.2,1.8,4,4,4s4-1.8,4-4S182.1,609.6,179.9,609.6z"/>
	<circle class="st10" cx="488.8" cy="550.7" r="4"/>
	<path class="st10" d="M379.5,554.7c2.2,0,4-1.8,4-4s-1.8-4-4-4c-2.3,0-4.1,1.8-4,4C375.5,552.9,377.3,554.7,379.5,554.7z"/>
	<path class="st10" d="M475.4,554.7c2.2,0,4-1.8,4-4s-1.8-4-4-4c-2.3,0-4.1,1.8-4,4C471.4,552.9,473.2,554.7,475.4,554.7z"/>
	<path class="st10" d="M571.4,565.4h-6.5c-0.4,0-0.7,0.3-0.8,0.7c0,11.8,0,23.5,0,35.3s-5.5,12.2-7.7,13c-2.9,1-2.2,4.3,1.2,3.8
		c5-0.7,14.5-4.3,14.5-20.2c0-12.2,0-19.7,0-31.9C572.1,565.7,571.8,565.4,571.4,565.4z"/>
	<circle class="st10" cx="568.3" cy="550.7" r="4"/>
	<path class="st10" d="M629.8,565.2h-23.1c-14.2,0-23.3,4.9-23.2,18.7v14.8c0,0.4,0.3,0.7,0.7,0.7h37.7c0.4,0.2,0.8,0.5,0.8,0.9v9
		c-0.1,2.2-3.2,4-5,5.5c-1.6,1.4-1.6,2.4,1.8,2.1c4.3-0.4,11.1-5.7,11-10.6v-7.5V592v-26.1C630.5,565.5,630.2,565.2,629.8,565.2z
		 M622.6,592.3c0,0.4-0.4,0.8-0.8,0.8h-29.5c-0.4,0-0.8-0.4-0.8-0.8V582c0-4.6,3.2-10.1,12.2-10.1h18.1c0.4,0,0.8,0.4,0.8,0.8V592.3
		z"/>
	<path class="st10" d="M549.1,546.6h-6.5c-0.4,0-0.7,0.4-0.7,0.8V599c0,0.4,0.3,0.7,0.7,0.7h6.5c0.4,0,0.7-0.3,0.7-0.7v-51.7
		C549.8,546.9,549.5,546.6,549.1,546.6z"/>
	<path class="st10" d="M426.6,546.6h-6.5c-0.3,0-0.7,0.4-0.7,0.8V599c0,0.4,0.3,0.7,0.7,0.7h6.5c0.4,0,0.7-0.3,0.7-0.7v-51.7
		C427.3,546.9,427,546.6,426.6,546.6z"/>
	<path class="st10" d="M527.7,565.4h-6.5c-0.4,0-0.7,0.3-0.8,0.7c0,11.8,0,23.5,0,35.3s-5.5,12.2-7.7,13c-2.9,1-2.2,4.3,1.2,3.8
		c5-0.7,14.5-4.3,14.5-20.2c0-12.2,0-19.7,0-31.9C528.4,565.7,528.1,565.4,527.7,565.4z"/>
	<path class="st10" d="M503.2,565.4h-23.1c-14.2,0-23.3,4.9-23.2,18.7v14.8c0,0.4,0.3,0.7,0.7,0.7c15.2,0,30.4,0,45.6,0
		c0.4,0,0.7-0.3,0.7-0.7v-32.8C503.9,565.7,503.6,565.4,503.2,565.4z M495.9,592.3c0,0.4-0.4,0.8-0.8,0.8h-29.5
		c-0.4,0-0.8-0.4-0.8-0.8V582c0-4.6,3.2-10.1,12.2-10.1h18.1c0.4,0,0.8,0.4,0.8,0.8L495.9,592.3L495.9,592.3z"/>
	<path class="st10" d="M405.4,546.5H399c-0.4,0-0.7,0.3-0.7,0.7V591c0,0.4-0.3,0.7-0.7,0.7h-20.1c-0.4,0-0.7-0.3-0.7-0.7v-25.1
		c0-0.4-0.3-0.7-0.7-0.7h-6.5c-0.4,0-0.7,0.3-0.7,0.7V591c0,0.4-0.3,0.7-0.7,0.7H286c-0.4,0-0.8-0.4-0.8-0.8V582
		c0-4.6,3.2-10.2,12.2-10.2h33.3c0.4,0,0.7-0.3,0.7-0.7V566c0-0.4-0.3-0.7-0.7-0.7h-30.3c-14.2,0-23.3,4.9-23.2,18.7v6.9
		c0,0.4-0.3,0.7-0.7,0.7h-66.8c-0.4,0-0.7-0.3-0.7-0.7V547c0-0.4-0.3-0.7-0.7-0.7h-6.5c-0.4,0-0.7,0.3-0.7,0.7v44
		c0,0.4-0.3,0.7-0.7,0.7h-22.5c-0.4,0-0.7-0.3-0.7-0.7v-24.6c0-0.4-0.3-0.7-0.7-0.7H170c-0.4,0-0.7,0.3-0.7,0.7V591
		c0,0.4-0.3,0.7-0.7,0.7H154c-0.4,0-0.7-0.3-0.7-0.7v-6.9c0.1-13.8-9-18.7-23.2-18.7h-28.5c-0.4,0-0.7,0.3-0.7,0.7v43.2h0.1
		c-0.1,2.2-3.2,4-5,5.5c-1.6,1.4-1.6,2.4,1.8,2.1c4.3-0.4,11.1-5.7,11-10.6v-6.8h43.7h252.9c0.4,0,0.7-0.3,0.7-0.7v-51.6
		C406.1,546.8,405.8,546.5,405.4,546.5z M145.4,590.9c0,0.4-0.3,0.8-0.8,0.8h-34.9c-0.4,0-0.8-0.4-0.8-0.8v-18.2
		c0-0.4,0.4-0.8,0.8-0.8h23.5c9,0,12.2,5.5,12.2,10.1L145.4,590.9L145.4,590.9z"/>
</g>
</svg>
